G04 EasyPC Gerber Version 20.0.2 Build 4112 *
G04 #@! TF.Part,Single*
G04 #@! TF.FileFunction,Soldermask,Top *
%FSLAX35Y35*%
%MOIN*%
G04 #@! TA.AperFunction,ComponentPad*
%ADD124O,0.07000X0.08874*%
%ADD121O,0.07693X0.10843*%
G04 #@! TD.AperFunction*
%ADD81O,0.10843X0.12811*%
G04 #@! TA.AperFunction,ComponentPad*
%ADD126R,0.06039X0.06039*%
%ADD128R,0.06315X0.06315*%
%ADD123R,0.07000X0.07000*%
%ADD122R,0.07500X0.07500*%
%ADD125R,0.08874X0.08874*%
%ADD127C,0.06039*%
%ADD129C,0.06315*%
G04 #@! TD.AperFunction*
%ADD79C,0.07000*%
%ADD75C,0.07693*%
%ADD77C,0.08874*%
%ADD80O,0.12000X0.07000*%
%ADD78R,0.09000X0.07000*%
%ADD73C,0.20685*%
X0Y0D02*
D02*
D73*
X15998Y15998D03*
Y273872D03*
X287652Y15998D03*
Y273872D03*
D02*
D75*
X13360Y211647D03*
Y251647D03*
X25995Y216372D03*
Y228243D03*
X64647Y60783D03*
Y100783D03*
X65995Y216372D03*
Y228243D03*
X75967Y216372D03*
X75979Y228243D03*
X79294Y70786D03*
Y90786D03*
X95042Y60796D03*
Y100796D03*
X108821Y60783D03*
Y100783D03*
X115967Y216372D03*
X115979Y228243D03*
X122601Y60783D03*
Y100783D03*
X125951Y216372D03*
Y228243D03*
X136362Y60796D03*
Y100796D03*
X150132Y60796D03*
Y100796D03*
X165951Y216372D03*
Y228243D03*
X175732Y70801D03*
Y90801D03*
X189522Y60801D03*
Y100801D03*
X203291Y60801D03*
Y100801D03*
X205289Y183063D03*
Y223063D03*
X217091Y70801D03*
Y90801D03*
X219030Y123894D03*
Y163894D03*
Y183134D03*
Y223134D03*
X230850Y60801D03*
Y100801D03*
X232848Y123911D03*
Y163911D03*
Y183063D03*
Y223063D03*
X244650Y60801D03*
Y100801D03*
X246608Y123922D03*
Y163922D03*
X246628Y183055D03*
Y223055D03*
X291766Y48301D03*
Y68301D03*
D02*
D77*
X291785Y116805D03*
D02*
D78*
X190191Y123793D03*
Y133793D03*
D02*
D79*
X12812Y112653D03*
Y122653D03*
X22812Y112653D03*
Y122653D03*
X32812Y112653D03*
Y122653D03*
X42812Y112653D03*
Y122653D03*
X52812Y112653D03*
Y122653D03*
X62812Y112653D03*
Y122653D03*
X72812Y112653D03*
D02*
D80*
X12865Y61420D03*
Y71420D03*
Y81420D03*
Y91420D03*
X42865Y61420D03*
Y71420D03*
Y81420D03*
Y91420D03*
D02*
D81*
X42428Y41033D03*
X42846Y249050D03*
X62428Y41033D03*
X62846Y249050D03*
X82428Y41033D03*
X82846Y249050D03*
X102846D03*
X105533Y41033D03*
X125533D03*
X125892Y249050D03*
X145533Y41033D03*
X145892Y249050D03*
X165533Y41033D03*
X165892Y249050D03*
X185892D03*
X188632Y41033D03*
X208632D03*
X208997Y249050D03*
X228997D03*
X232086Y31191D03*
X247086D03*
X248997Y249050D03*
X262086Y31191D03*
D02*
D121*
X15902Y137809D03*
Y196864D03*
X25902Y137809D03*
Y196864D03*
X35902Y137809D03*
Y196864D03*
X45902Y137809D03*
Y196864D03*
X55902Y137809D03*
Y196864D03*
X65902Y137809D03*
Y196864D03*
X75902Y137809D03*
Y196864D03*
X85902Y137809D03*
Y196864D03*
X95902Y137809D03*
Y196864D03*
X105902Y137809D03*
Y196864D03*
X115902Y137809D03*
Y196864D03*
X125902Y137809D03*
Y196864D03*
X135902Y137809D03*
Y196864D03*
X145902Y137809D03*
Y196864D03*
X155902Y137809D03*
Y196864D03*
D02*
D122*
X281096Y195654D03*
Y205654D03*
Y215654D03*
Y225654D03*
Y235654D03*
Y245654D03*
D02*
D123*
X72812Y122653D03*
D02*
D124*
X182691Y162986D03*
X190191D03*
X197691D03*
D02*
D125*
X291785Y86805D03*
D02*
D126*
X291057Y143281D03*
D02*
D127*
Y153281D03*
Y163281D03*
D02*
D128*
X268242Y98429D03*
D02*
D129*
Y106303D03*
X0Y0D02*
M02*
