G04 EasyPC Gerber Version 20.0.2 Build 4112 *
G04 #@! TF.Part,Single*
G04 #@! TF.FileFunction,Soldermask,Top *
%FSLAX35Y35*%
%MOIN*%
G04 #@! TA.AperFunction,ComponentPad*
%ADD82O,0.06472X0.08346*%
%ADD76O,0.07165X0.10315*%
%ADD79O,0.10315X0.12283*%
%ADD87R,0.05787X0.05787*%
%ADD80R,0.06472X0.06472*%
%ADD78R,0.06972X0.06972*%
%ADD85R,0.08346X0.08346*%
G04 #@! TA.AperFunction,ViaPad*
%ADD90C,0.04472*%
G04 #@! TA.AperFunction,ComponentPad*
%ADD88C,0.05787*%
%ADD81C,0.06472*%
%ADD150C,0.06972*%
%ADD77C,0.07165*%
%ADD86C,0.08346*%
%ADD84O,0.11472X0.06472*%
G04 #@! TA.AperFunction,WasherPad*
%ADD75C,0.20157*%
G04 #@! TA.AperFunction,ComponentPad*
%ADD83R,0.08472X0.06472*%
X0Y0D02*
D02*
D75*
X15998Y15998D03*
Y273872D03*
X287652Y15998D03*
Y273872D03*
D02*
D76*
X15902Y137809D03*
Y196864D03*
X25902Y137809D03*
Y196864D03*
X35902Y137809D03*
Y196864D03*
X45902Y137809D03*
Y196864D03*
X55902Y137809D03*
Y196864D03*
X65902Y137809D03*
Y196864D03*
X75902Y137809D03*
Y196864D03*
X85902Y137809D03*
Y196864D03*
X95902Y137809D03*
Y196864D03*
X105902Y137809D03*
Y196864D03*
X115902Y137809D03*
Y196864D03*
X125902Y137809D03*
Y196864D03*
X135902Y137809D03*
Y196864D03*
X145902Y137809D03*
Y196864D03*
X155902Y137809D03*
Y196864D03*
D02*
D77*
X79294Y70786D03*
Y90786D03*
X175732Y70801D03*
Y90801D03*
X217091Y70801D03*
Y90801D03*
X291766Y48301D03*
Y68301D03*
D02*
D78*
X281096Y195654D03*
Y205654D03*
Y215654D03*
Y225654D03*
Y235654D03*
Y245654D03*
X291057Y143281D03*
D02*
D79*
X42428Y41033D03*
X42846Y249050D03*
X62428Y41033D03*
X62846Y249050D03*
X82428Y41033D03*
X82846Y249050D03*
X102846D03*
X105533Y41033D03*
X125533D03*
X125892Y249050D03*
X145533Y41033D03*
X145892Y249050D03*
X165533Y41033D03*
X165892Y249050D03*
X185892D03*
X188632Y41033D03*
X208632D03*
X208997Y249050D03*
X228997D03*
X232086Y31191D03*
X247086D03*
X248997Y249050D03*
X262086Y31191D03*
D02*
D80*
X72812Y122653D03*
D02*
D81*
X12812Y112653D03*
Y122653D03*
X13360Y211647D03*
Y251647D03*
X22812Y112653D03*
Y122653D03*
X25995Y216372D03*
Y228243D03*
X32812Y112653D03*
Y122653D03*
X42812Y112653D03*
Y122653D03*
X52812Y112653D03*
Y122653D03*
X62812Y112653D03*
Y122653D03*
X64647Y60783D03*
Y100783D03*
X65995Y216372D03*
Y228243D03*
X72812Y112653D03*
X75967Y216372D03*
X75979Y228243D03*
X95042Y60796D03*
Y100796D03*
X108821Y60783D03*
Y100783D03*
X115967Y216372D03*
X115979Y228243D03*
X122601Y60783D03*
Y100783D03*
X125951Y216372D03*
Y228243D03*
X136362Y60796D03*
Y100796D03*
X150132Y60796D03*
Y100796D03*
X165951Y216372D03*
Y228243D03*
X189522Y60801D03*
Y100801D03*
X203291Y60801D03*
Y100801D03*
X205289Y183063D03*
Y223063D03*
X219030Y123894D03*
Y163894D03*
Y183134D03*
Y223134D03*
X230850Y60801D03*
Y100801D03*
X232848Y123911D03*
Y163911D03*
Y183063D03*
Y223063D03*
X244650Y60801D03*
Y100801D03*
X246608Y123922D03*
Y163922D03*
X246628Y183055D03*
Y223055D03*
D02*
D82*
X182691Y162986D03*
X190191D03*
X197691D03*
D02*
D83*
X190191Y123793D03*
Y133793D03*
D02*
D84*
X12865Y61420D03*
Y71420D03*
Y81420D03*
Y91420D03*
X42865Y61420D03*
Y71420D03*
Y81420D03*
Y91420D03*
D02*
D85*
X291785Y86805D03*
D02*
D86*
Y116805D03*
D02*
D87*
X268242Y98429D03*
D02*
D88*
Y106303D03*
D02*
D90*
X10082Y102163D03*
X20386Y245250D03*
X39416Y12770D03*
X46068Y187360D03*
X59994Y222690D03*
X70171Y276628D03*
X102100Y107022D03*
X115071Y183296D03*
X115624Y94848D03*
X123324Y14659D03*
X163360Y115526D03*
X166754Y183967D03*
X183804Y218941D03*
X192611Y207670D03*
X213177Y14659D03*
X228321Y276628D03*
X232695Y151271D03*
X244486Y207190D03*
X262449Y13476D03*
D02*
D150*
X291057Y153281D03*
Y163281D03*
X0Y0D02*
M02*
